<svg width="512" height="512" viewBox="0 0 512 512" fill="none" xmlns="http://www.w3.org/2000/svg">
<rect width="512" height="512" fill="white"/>
<path fill-rule="evenodd" clip-rule="evenodd" d="M337.875 133.913C387.463 158.746 417.775 174.306 418.232 175.159C419.256 177.073 419.256 335.888 418.232 337.803C417.397 339.363 258.774 419 256.5 419C254.226 419 95.6033 339.363 94.7679 337.803C93.7441 335.888 93.7441 177.073 94.7679 175.159C95.6628 173.487 254.347 93.9433 256.674 94C257.541 94.0217 294.081 111.982 337.875 133.913ZM237.246 115.497C226.652 120.79 217.997 125.283 218.013 125.479C218.029 125.674 249.389 142.46 287.702 162.78L357.364 199.724L378.71 189.054C390.451 183.186 400.058 178.224 400.058 178.027C400.058 177.762 257.64 106.129 256.679 105.909C256.584 105.888 247.839 110.202 237.246 115.497ZM188.613 139.778C173.215 147.532 172.931 147.713 174.607 148.763C175.548 149.351 206.968 166.105 244.429 185.993L312.54 222.153L328.787 214.02C344.261 206.276 344.951 205.845 343.309 204.973C342.36 204.47 311.017 187.803 273.657 167.936C236.297 148.069 205.414 131.825 205.029 131.839C204.644 131.853 197.257 135.426 188.613 139.778ZM136.405 165.934C123.5 172.385 112.942 177.824 112.942 178.02C112.942 178.216 145.244 194.532 184.724 214.278L256.506 250.178L278.361 239.242C299.102 228.864 300.129 228.259 298.492 227.392C297.543 226.889 266.199 210.222 228.839 190.354C191.479 170.486 160.676 154.225 160.389 154.218C160.102 154.211 149.309 159.483 136.405 165.934ZM362.943 239.702V269.854L361.224 271.573C359.544 273.254 359.252 273.293 348.471 273.293H337.436L326.157 284.501C316.263 294.332 314.6 295.71 312.618 295.71C311.152 295.71 309.754 295.105 308.639 293.99L306.92 292.271V264.916V237.563L284.511 248.775L262.102 259.988V332.139V404.291L334.932 367.862L407.761 331.434V259.28V187.126L385.352 198.338L362.943 209.551V239.702ZM105.239 259.282V331.434L178.068 367.862L250.898 404.291V332.138V259.985L178.244 223.596C138.283 203.582 105.51 187.189 105.414 187.168C105.318 187.147 105.239 219.599 105.239 259.282ZM318.125 254.165V276.361L325.376 269.223L332.628 262.085H342.183H351.738V238.615V215.145L334.932 223.557L318.125 231.968V254.165Z" fill="#2DAEE2"/>
</svg>
