<?xml version="1.0" encoding="utf-8"?>
<!-- Generator: Adobe Illustrator 26.2.1, SVG Export Plug-In . SVG Version: 6.00 Build 0)  -->
<svg version="1.1" id="Layer_1" xmlns="http://www.w3.org/2000/svg" xmlns:xlink="http://www.w3.org/1999/xlink" x="0px" y="0px"
	 viewBox="0 0 512 512" style="enable-background:new 0 0 512 512;" xml:space="preserve">
<style type="text/css">
	.st0{fill:url(#SVGID_1_);}
</style>
<linearGradient id="SVGID_1_" gradientUnits="userSpaceOnUse" x1="67.4632" y1="499.632" x2="441.9521" y2="68.8317">
	<stop  offset="0" style="stop-color:#16B7D7"/>
	<stop  offset="1" style="stop-color:#2E7FC2"/>
</linearGradient>
<path class="st0" d="M511.53,132.32c0,94.49,0,188.98,0,283.48c-0.31,1.09-0.72,2.17-0.91,3.28c-6.36,37.03-36.39,62.49-74.03,62.5
	c-120.41,0.04-240.82,0.03-361.23-0.05c-5.12,0-10.34-0.44-15.35-1.47c-35.32-7.26-59.5-36.89-59.52-72.95
	c-0.06-89.14-0.02-178.29-0.02-267.43c0-13.52,5.2-18.77,18.59-18.77c41.74-0.01,83.49,0,125.23,0c2.08,0,4.17,0,6.67,0
	c0-11.33-0.29-21.8,0.05-32.25c1.05-31.57,26.97-57.51,58.5-57.95c30.93-0.43,61.87-0.42,92.8,0.02
	c18.85,0.27,34.31,8.47,46.01,23.29c8.75,11.08,12.93,23.81,12.8,37.97c-0.09,9.43-0.02,18.86-0.02,28.92c2.54,0,4.49,0,6.44,0
	c41.58,0,83.16,0.17,124.73-0.13C501.52,120.71,508.04,123.58,511.53,132.32z M30.42,228.75c0,2.31,0,3.73,0,5.16
	c0,57.55-0.05,115.1,0.02,172.64c0.03,25.99,19.04,45.06,45.07,45.07c120.25,0.06,240.5,0.06,360.76,0
	c26.36-0.01,45.27-18.97,45.3-45.35c0.06-57.55,0.02-115.1,0.01-172.64c0-1.36-0.19-2.72-0.37-5.06
	c-13.9,19.26-29.89,34.92-48.13,48.25c-32.58,23.81-69.01,38.87-108.33,47.24c-3.02,0.64-5.46,0.94-6.39,5.26
	c-6.49,30.16-32.2,50.78-62.5,50.7c-30.29-0.08-55.85-20.85-62.33-50.99c-0.71-3.32-2.27-4.19-5.06-4.84
	c-8.41-1.96-16.86-3.79-25.12-6.26c-45.11-13.49-85.06-35.65-117.26-70.58C40.83,241.68,36.1,235.53,30.42,228.75z M31.53,151.12
	c0.15,1.45,0.19,2.28,0.32,3.09c4.52,28.7,17.74,53.08,37.34,74.11c28.07,30.13,63.01,48.91,102.03,60.69
	c6.73,2.03,13.58,3.63,20.37,5.42c0.3-1.15,0.46-1.47,0.46-1.79c0.03-7.49,0.05-14.97,0.06-22.46c0.02-12.31,5.66-17.96,18.02-17.97
	c30.61-0.02,61.22-0.02,91.83,0c12.3,0.01,17.94,5.7,17.96,18.03c0.01,7.89,0,15.79,0,23.81c1.35-0.08,2.03-0.02,2.66-0.16
	c35.23-8.16,67.93-21.95,96.73-44.13c25.14-19.37,44.84-43.01,55.28-73.43c2.76-8.03,4.36-16.47,6.62-25.22
	C330.63,151.12,181.33,151.12,31.53,151.12z M181.36,120.58c49.78,0,99.55,0,149.74,0c0-10.43,0.27-20.55-0.06-30.65
	c-0.53-16.26-13.18-29.11-29.43-29.28c-30.41-0.32-60.84-0.28-91.25-0.01c-14.23,0.13-27.13,10.56-28.72,24.4
	C180.29,96.65,181.36,108.53,181.36,120.58z M222.07,282.39c0,11.84-0.14,23.13,0.03,34.42c0.25,17.06,13.57,31.65,29.98,33.12
	c18.1,1.62,34.22-9.3,36.81-26.87c1.78-12.05,0.82-24.5,1.05-36.77c0.02-1.26-0.23-2.53-0.36-3.9
	C267.06,282.39,244.87,282.39,222.07,282.39z"/>
</svg>
