<?xml version="1.0" encoding="utf-8"?>
<!-- Generator: Adobe Illustrator 26.2.1, SVG Export Plug-In . SVG Version: 6.00 Build 0)  -->
<svg version="1.1" id="Layer_1" xmlns="http://www.w3.org/2000/svg" xmlns:xlink="http://www.w3.org/1999/xlink" x="0px" y="0px"
	 viewBox="0 0 512 512" style="enable-background:new 0 0 512 512;" xml:space="preserve">
<style type="text/css">
	.st0{fill:url(#SVGID_1_);}
	.st1{fill:url(#SVGID_00000014594834588412727540000014643005907498602386_);}
	.st2{fill:url(#SVGID_00000130640904124693137620000014461011584516608140_);}
	.st3{fill:url(#SVGID_00000081648315884669049790000011995473772334306474_);}
</style>
<linearGradient id="SVGID_1_" gradientUnits="userSpaceOnUse" x1="152.1039" y1="137.7663" x2="315.9857" y2="326.2908" gradientTransform="matrix(1 0 0 -1 0 512)">
	<stop  offset="5.327789e-09" style="stop-color:#16B7D7"/>
	<stop  offset="1" style="stop-color:#2E7FC2"/>
</linearGradient>
<path class="st0" d="M512,425c-8.9,21.49-21.95,40.65-34.72,59.83c-10.87,16.33-28.31,22.26-47.02,25.17
	c-31.06,4.82-61.08,0.26-90.49-9.65c-44.94-15.14-84.36-40.13-121.15-69.43C159.53,383.86,106.95,330.4,62.83,268.96
	c-23.51-32.74-42.97-67.73-54.33-106.7C1.69,138.9-1.76,115.09,0.9,90.7c1.88-17.2,4.79-34.16,17.13-47.49
	c4.14-4.47,8.86-8.67,13.99-11.92C46.36,22.19,61,13.56,75.65,4.97c3.52-2.07,7.55-3.29,11.34-4.89c3.33,0,6.67,0,10,0
	c11.35,2.96,18.47,10.73,24.7,20.25c20.79,31.76,42.05,63.21,63.07,94.82c8.58,12.9,8.44,26.44-0.42,37.52
	c-1.95,2.44-4.4,4.55-6.86,6.5c-11.38,8.97-22.85,17.83-34.28,26.74c-8.26,6.44-9.25,11.84-4.41,21.21
	c13.95,27.01,32.21,50.88,52.99,72.9c25.75,27.29,52.15,53.93,83.28,75.22c10.14,6.94,20.98,12.89,31.72,18.9
	c7.35,4.11,13.28,2.45,18.77-4.56c8.73-11.14,17.38-22.35,26.08-33.52c13.44-17.24,28.88-19.78,46.97-7.72
	c31.04,20.68,61.96,41.54,93.17,61.96c9.52,6.23,17.31,13.33,20.23,24.71C512,418.33,512,421.66,512,425z M408.42,495.02
	c4.38-0.44,12.86-1.05,21.25-2.21c17.54-2.42,31.05-10.76,39.83-26.67c6.91-12.52,14.67-24.58,22.01-36.86
	c5.48-9.16,4.02-15.68-4.87-21.62c-32.82-21.91-65.64-43.81-98.48-65.69c-9.35-6.23-15.41-5.25-22.33,3.59
	c-9.14,11.67-18.14,23.45-27.34,35.07c-10.49,13.26-25.17,16.4-40.03,8.49c-7.93-4.22-15.78-8.62-23.42-13.34
	c-27.4-16.93-50.9-38.64-73.63-61.18c-30.14-29.87-58.23-61.35-77.87-99.51c-8.52-16.57-5.88-30.92,8.81-42.37
	c11.69-9.11,23.45-18.15,35.08-27.34c7.38-5.83,8.6-12.37,3.49-20.09c-22.44-33.86-44.98-67.66-67.57-101.42
	c-4.7-7.02-11.8-8.5-19.14-4.16c-13.9,8.22-27.72,16.57-41.55,24.9c-11.08,6.67-18.4,16.21-21.54,28.79
	c-6.36,25.49-4.87,50.87,1.48,76.1c10.4,41.35,31.1,77.68,55.67,111.95c32.46,45.28,70.65,85.45,111.75,122.91
	c36.93,33.66,76.26,64.05,121.43,86.09C340.74,484.75,371.33,494.45,408.42,495.02z"/>
<linearGradient id="SVGID_00000075854231051386433840000006147957784586402483_" gradientUnits="userSpaceOnUse" x1="356.4441" y1="346.3503" x2="402.0464" y2="398.8099" gradientTransform="matrix(1 0 0 -1 0 512)">
	<stop  offset="5.327789e-09" style="stop-color:#16B7D7"/>
	<stop  offset="1" style="stop-color:#2E7FC2"/>
</linearGradient>
<path style="fill:url(#SVGID_00000075854231051386433840000006147957784586402483_);" d="M298.72,68.8
	c69.42,3.12,132.42,52.92,148.99,124.92c2.63,11.43,3.19,23.37,4.27,35.11c0.55,5.95-2.96,9.84-7.95,10.08
	c-4.86,0.23-8.2-3.54-9-9.4c-1.79-13.15-2.45-26.66-6.03-39.33c-11.13-39.47-35.68-68.68-71.73-88.06
	c-19.03-10.23-39.5-15.68-61.18-16.32c-2.49-0.07-5.01-0.29-7.45-0.74c-4.35-0.8-6.69-3.6-6.79-7.98c-0.09-4.38,2.1-7.51,6.46-8.18
	C291.7,68.39,295.24,68.8,298.72,68.8z"/>
<linearGradient id="SVGID_00000096754895429141497180000009462821994278920886_" gradientUnits="userSpaceOnUse" x1="332.449" y1="322.6046" x2="366.5716" y2="361.8581" gradientTransform="matrix(1 0 0 -1 0 512)">
	<stop  offset="5.327789e-09" style="stop-color:#16B7D7"/>
	<stop  offset="1" style="stop-color:#2E7FC2"/>
</linearGradient>
<path style="fill:url(#SVGID_00000096754895429141497180000009462821994278920886_);" d="M295.45,119.91
	c57.75,2.57,103.8,49.56,105.48,107.62c0.2,7.05-2.89,11.3-8.3,11.4c-5.16,0.1-8.38-3.83-8.72-10.65
	c-2.04-41.02-25.8-73.49-64.13-86.59c-7.76-2.65-16.24-3.24-24.39-4.73c-1.3-0.24-2.66-0.1-3.99-0.25c-6.57-0.7-9.86-3.86-9.59-9.16
	c0.27-5.23,4.09-8.05,10.64-7.82C293.45,119.79,294.45,119.86,295.45,119.91z"/>
<linearGradient id="SVGID_00000067212297811075322980000016797601915168109197_" gradientUnits="userSpaceOnUse" x1="308.5075" y1="298.9182" x2="331.0698" y2="324.8731" gradientTransform="matrix(1 0 0 -1 0 512)">
	<stop  offset="5.327789e-09" style="stop-color:#16B7D7"/>
	<stop  offset="1" style="stop-color:#2E7FC2"/>
</linearGradient>
<path style="fill:url(#SVGID_00000067212297811075322980000016797601915168109197_);" d="M293.29,170.96
	c30.25,0.96,56.45,27.77,56.54,57.86c0.02,5.88-3.21,9.87-8.18,10.11c-4.62,0.22-8.33-3.21-8.78-8.91
	c-1.03-13.25-5.85-24.49-16.45-32.89c-7.14-5.66-15.28-8.56-24.36-9.15c-7.22-0.46-10.7-3.89-10.2-9.55
	C282.32,173.11,285.98,170.72,293.29,170.96z"/>
</svg>
