<svg width="512" height="512" viewBox="0 0 512 512" fill="none" xmlns="http://www.w3.org/2000/svg">
<rect width="512" height="512" fill="white"/>
<path fill-rule="evenodd" clip-rule="evenodd" d="M249.075 94.7434C240.846 97.062 243.129 94.9455 169.955 168.091C131.947 206.084 100.011 238.427 98.9849 239.964C91.1168 251.75 92.7003 267.52 102.763 277.592C108.586 283.421 116.022 286.442 124.543 286.442H128.856V337.272C128.856 371.683 129.081 389.191 129.553 391.472C131.951 403.064 141.321 413.536 152.873 417.53C157.087 418.988 157.381 419 188.04 419C218.277 419 218.997 418.971 220.713 417.689C221.678 416.968 223.057 415.588 223.777 414.623C225.062 412.902 225.093 412.048 225.405 370.426L225.722 327.983L227.651 324.855C230.054 320.957 234.961 317.841 239.606 317.263C241.402 317.04 250.304 316.951 259.387 317.067L275.902 317.277L279.239 319.128C282.42 320.892 284.474 322.993 286.442 326.495C287.175 327.8 287.392 335.674 287.653 370.477C287.964 412.048 287.996 412.902 289.28 414.623C290 415.588 291.379 416.968 292.344 417.689C294.06 418.971 294.781 419 325.017 419C355.676 419 355.971 418.988 360.185 417.53C371.737 413.536 381.106 403.064 383.504 391.472C383.976 389.191 384.201 371.683 384.201 337.272V286.442H388.514C403.776 286.442 416.116 276.083 418.62 261.17C419.61 255.28 418.654 249.033 415.873 243.21C414.053 239.399 408.529 233.693 344.901 169.914C306.952 131.874 274.553 99.8778 272.904 98.8123C271.256 97.7474 268.398 96.294 266.553 95.5832C262.141 93.8832 253.585 93.4718 249.075 94.7434Z" fill="#00945F"/>
</svg>
