<?xml version="1.0" encoding="utf-8"?>
<!-- Generator: Adobe Illustrator 26.2.1, SVG Export Plug-In . SVG Version: 6.00 Build 0)  -->
<svg version="1.1" id="Layer_1" xmlns="http://www.w3.org/2000/svg" xmlns:xlink="http://www.w3.org/1999/xlink" x="0px" y="0px"
	 viewBox="0 0 512 512" style="enable-background:new 0 0 512 512;" xml:space="preserve">
<style type="text/css">
	.st0{fill:url(#SVGID_1_);}
	.st1{fill:url(#SVGID_00000146478214633415816830000015737773142114902973_);}
</style>
<g>
	<linearGradient id="SVGID_1_" gradientUnits="userSpaceOnUse" x1="90.9194" y1="495.8135" x2="433.8235" y2="101.3475">
		<stop  offset="5.327789e-08" style="stop-color:#12B7D7"/>
		<stop  offset="1" style="stop-color:#2F7FC3"/>
	</linearGradient>
	<path class="st0" d="M267.94,0c11.07,2.13,22.36,3.47,33.17,6.53c33.86,9.57,61.78,28.54,83.58,56.08
		c25.7,32.45,37.66,69.64,36.02,110.98c-1.14,28.84-9.6,55.58-25.08,79.97c-17.21,27.12-34.61,54.12-51.93,81.17
		c-0.53,0.83-1.02,1.7-1.99,3.3c5.52,1.04,10.64,1.92,15.72,2.97c28.07,5.76,55.67,13.01,81.18,26.58
		c13.22,7.03,25.39,15.51,33.92,28.08c12.76,18.79,10.91,40.8-4.53,58.36c-9.05,10.29-20.31,17.67-32.4,23.8
		c-28.33,14.36-58.77,21.82-89.87,26.99c-35.76,5.95-71.8,8.12-107.99,6.87c-49.08-1.7-97.45-7.88-143.66-25.78
		c-15.43-5.98-30.1-13.42-42.67-24.41c-28.16-24.63-27.02-58.43,2.6-81.38c19.01-14.73,40.78-23.7,63.68-29.95
		c15.84-4.33,32-7.48,48.02-11.16c1.27-0.29,2.54-0.6,4.28-1.01c-1-1.72-1.75-3.12-2.6-4.46c-17.22-26.92-34.81-53.61-51.59-80.79
		c-20.95-33.93-28.93-70.87-22.86-110.46c8.28-54.05,36.9-94.36,83.84-121.68c19.17-11.16,40.19-17.38,62.32-19.66
		c1.63-0.17,3.24-0.6,4.86-0.91C251.95,0,259.95,0,267.94,0z M255.9,416.23c1.71-2.6,2.9-4.38,4.06-6.19
		c35.9-56.24,71.69-112.55,107.74-168.7c24.99-38.92,29.76-80.06,14.2-123.46c-21.69-60.52-86.85-97.56-150.11-85.49
		c-35.43,6.76-63.58,25.04-85.04,54.01c-31.84,42.96-34.07,105.82-5.2,150.86c30.43,47.49,60.77,95.04,91.15,142.57
		C240.29,391.72,247.86,403.62,255.9,416.23z M267.62,482.01c12.17-1.01,36.25-2.5,60.22-5.12c27.66-3.03,54.7-9.25,80.57-19.77
		c13.6-5.53,26.87-11.79,36.86-23.1c7.22-8.18,7.64-16.21-0.06-23.91c-5.91-5.92-12.73-11.36-20.03-15.4
		c-30.02-16.6-63.09-23.07-96.59-27.99c-4.03-0.59-5.85,0.74-7.84,3.9c-16.78,26.59-33.61,53.15-50.77,79.49
		c-2.3,3.53-6.05,6.87-9.89,8.45c-6.82,2.82-13.25-0.47-17.98-7.88c-17.02-26.64-34.05-53.26-50.89-80.01
		c-2.15-3.41-4.22-4.72-8.32-3.91c-9.94,1.96-20.03,3.15-29.95,5.19c-23.17,4.78-45.96,10.97-66.59,22.95
		c-7.1,4.12-13.83,9.33-19.62,15.14c-7.69,7.73-7.38,15.83-0.11,23.88c3.21,3.55,6.88,6.82,10.81,9.54
		c15.78,10.91,33.62,17.29,51.89,22.48C170.62,477.68,212.94,481.38,267.62,482.01z"/>
	
		<linearGradient id="SVGID_00000147210709643018263350000009855532736950667957_" gradientUnits="userSpaceOnUse" x1="206.7521" y1="222.545" x2="305.1385" y2="109.3643">
		<stop  offset="5.327789e-08" style="stop-color:#12B7D7"/>
		<stop  offset="1" style="stop-color:#2F7FC3"/>
	</linearGradient>
	<path style="fill:url(#SVGID_00000147210709643018263350000009855532736950667957_);" d="M255.85,240.92
		c-41.36-0.03-74.85-33.56-74.86-74.93c-0.01-41.6,33.63-75.09,75.31-74.99c41.29,0.1,74.68,33.74,74.61,75.18
		C330.84,207.51,297.25,240.95,255.85,240.92z M300.87,166.67c-0.35-23.5-16.83-44.65-44.09-45.44
		c-23.18-0.68-44.67,16.26-45.55,43.77c-0.75,23.62,16.68,45.09,44.13,45.69C279.13,211.21,299.35,193.68,300.87,166.67z"/>
</g>
</svg>
