<?xml version="1.0" encoding="utf-8"?>
<!-- Generator: Adobe Illustrator 26.2.1, SVG Export Plug-In . SVG Version: 6.00 Build 0)  -->
<svg version="1.1" id="Layer_1" xmlns="http://www.w3.org/2000/svg" xmlns:xlink="http://www.w3.org/1999/xlink" x="0px" y="0px"
	 viewBox="0 0 512 512" style="enable-background:new 0 0 512 512;" xml:space="preserve">
<style type="text/css">
	.st0{fill:url(#SVGID_1_);}
</style>
<linearGradient id="SVGID_1_" gradientUnits="userSpaceOnUse" x1="68.5153" y1="40.5485" x2="443.3503" y2="471.7468" gradientTransform="matrix(1 0 0 -1 0 512)">
	<stop  offset="5.327789e-09" style="stop-color:#16B7D7"/>
	<stop  offset="1" style="stop-color:#2E7FC2"/>
</linearGradient>
<path class="st0" d="M511.77,404.85c-2.31,4.36-4.02,9.21-7.06,12.98c-5.49,6.8-13.35,8.79-21.9,8.78
	c-53.94-0.05-107.88-0.03-161.82-0.03c-97.06,0-194.12-0.01-291.18,0.03c-7.38,0-14.25-1.3-20.02-6.21
	c-6.63-5.64-9.58-12.89-9.56-21.58c0.07-33.3,0.03-66.59,0.03-99.89c0-61.1,0-122.2,0-183.3c0-19.83,10.33-30.23,30.07-30.23
	c149.67,0,299.34,0,449,0c18.99,0,25.34,4.25,32.45,21.73C511.77,206.37,511.77,305.61,511.77,404.85z M477.86,406.63
	c-1.35-1.78-2.13-2.86-2.96-3.9c-23.14-28.6-46.3-57.19-69.45-85.78c-12.67-15.65-25.38-31.29-38.01-46.98
	c-5.06-6.28-3.6-13.92,3.02-16.54c4.62-1.83,8.64-0.3,12.87,4.94c31.42,38.81,62.84,77.63,94.27,116.44
	c4.45,5.49,8.92,10.97,13.89,17.07c0-91.78,0-182.58,0-273.9c-2.05,1.51-3.53,2.58-5,3.68c-66.98,50.23-133.95,100.47-200.94,150.69
	c-18.61,13.95-40.33,14.03-58.61,0.32C159.57,222.16,92.19,171.64,24.81,121.12c-1.35-1.01-2.76-1.95-4.34-3.07
	c0,91.52,0,182.26,0,273.82c1.65-1.96,2.73-3.2,3.77-4.47c27.66-34.15,55.31-68.31,82.96-102.47c7.44-9.19,14.82-18.41,22.32-27.55
	c4.2-5.12,9.92-6.04,14.46-2.53c4.75,3.68,5.05,9.46,0.76,15.01c-0.41,0.53-0.85,1.02-1.27,1.54
	c-35.19,43.47-70.38,86.95-105.56,130.43c-1.17,1.44-2.25,2.95-3.66,4.81C182.44,406.63,329.74,406.63,477.86,406.63z M37,105.42
	c1.64,1.33,2.5,2.07,3.41,2.75c66.28,49.73,132.55,99.46,198.85,149.16c10.57,7.92,23.01,7.88,33.7-0.14
	c66.03-49.5,132.03-99.02,198.04-148.54c1.14-0.85,2.21-1.8,3.97-3.24C328.76,105.42,183.42,105.42,37,105.42z"/>
</svg>
