<?xml version="1.0" encoding="utf-8"?>
<!-- Generator: Adobe Illustrator 26.2.1, SVG Export Plug-In . SVG Version: 6.00 Build 0)  -->
<svg version="1.1" id="Layer_1" xmlns="http://www.w3.org/2000/svg" xmlns:xlink="http://www.w3.org/1999/xlink" x="0px" y="0px"
	 viewBox="0 0 512 512" style="enable-background:new 0 0 512 512;" xml:space="preserve">
<style type="text/css">
	.st0{fill:url(#SVGID_1_);}
	.st1{fill:url(#SVGID_00000065764017610632938540000006745329505149561534_);}
	.st2{fill:url(#SVGID_00000160157660073879941120000011845287875594323611_);}
	.st3{fill:url(#SVGID_00000175308947715476519490000009329246303025800369_);}
	.st4{fill:url(#SVGID_00000024003470624986021870000003931286827000927636_);}
</style>
<g>
	<linearGradient id="SVGID_1_" gradientUnits="userSpaceOnUse" x1="65.5004" y1="430.4174" x2="400.9637" y2="44.511">
		<stop  offset="5.327789e-08" style="stop-color:#16B7D7"/>
		<stop  offset="1" style="stop-color:#2E7FC2"/>
	</linearGradient>
	<path class="st0" d="M0,241.08c1.28-9.19,2.3-18.43,3.88-27.57C20.84,114.94,96.43,33.61,193.3,9.6
		c139.92-34.69,279.51,50.5,312.2,190.78c2.78,11.92,3.77,24.26,5.6,36.4c0.27,1.77,0.59,3.54,0.89,5.3c0,5.99,0,11.98,0,17.97
		c-4.04,5.54-7.63,7.08-11.98,5.04c-4.01-1.88-5.06-5.27-5.11-9.43c-0.45-42.82-11.11-82.97-33.43-119.54
		C423.44,73.76,368.4,34.76,296.12,22.58C185.85,3.99,81.08,61.58,36.28,163.81c-42.5,96.96-13.33,213.09,70.23,279.6
		c0.91,0.73,1.85,1.42,2.74,2.17c4.45,3.75,5.37,8.73,2.34,12.67c-3.1,4.04-8.18,4.53-12.78,0.72
		c-7.43-6.16-14.98-12.25-21.82-19.02c-45.32-44.85-70.7-99.09-76.13-162.6c-0.12-1.45-0.56-2.88-0.86-4.32
		C0,262.38,0,251.73,0,241.08z"/>
	
		<linearGradient id="SVGID_00000043436591722076326620000005952394904924357055_" gradientUnits="userSpaceOnUse" x1="153.2689" y1="347.2204" x2="359.883" y2="109.5381">
		<stop  offset="5.327789e-08" style="stop-color:#16B7D7"/>
		<stop  offset="1" style="stop-color:#2E7FC2"/>
	</linearGradient>
	<path style="fill:url(#SVGID_00000043436591722076326620000005952394904924357055_);" d="M198.37,176.18c38.7,0,76.66,0,115.32,0
		c0-2.13,0-4.07,0-6.01c0-25.95,0-51.9,0.01-77.85c0-1.83-0.06-3.68,0.2-5.48c0.63-4.42,3.53-6.84,7.74-7.14
		c4.02-0.29,7.18,1.67,8.4,5.67c0.62,2.02,0.7,4.25,0.7,6.39c0.04,25.95,0.03,51.9,0.03,77.85c0,1.98,0,3.97,0,6.77
		c2.02,0,3.76,0,5.51,0c12,0,24-0.04,36,0.04c2.13,0.01,4.41,0.13,6.37,0.87c3.86,1.45,5.73,4.6,5.22,8.68
		c-0.5,4.02-2.89,6.69-7.06,7.27c-1.97,0.28-3.99,0.18-5.99,0.18c-67.66,0.01-135.32,0.01-202.98,0.01c-1.98,0-3.96,0-6.52,0
		c-0.1,2.04-0.25,3.79-0.25,5.53c-0.01,29.28-0.06,58.55,0,87.83c0.12,56.74,45.38,99.2,102.23,95.99
		c43.43-2.46,82.7-39.01,86.51-82.15c1.81-20.48,0.88-41.2,1.16-61.81c0.08-5.65-0.14-11.32,0.1-16.96c0.2-4.66,3.58-7.76,8.03-7.93
		c4.69-0.18,8.85,2.91,8.75,7.66c-0.59,29.23,2.77,58.63-1.97,87.67c-7.52,45.99-48.11,84.06-94.54,89.68
		c-61.74,7.48-115.38-32.21-125.91-93.35c-1.09-6.35-1.32-12.91-1.35-19.38c-0.14-28.94-0.06-57.89-0.06-86.83c0-1.79,0-3.59,0-5.96
		c-2.59,0-4.71,0.07-6.82-0.01c-5.39-0.2-8.86-3.26-9.12-7.95c-0.27-4.77,3.32-8.73,8.73-8.96c6.49-0.28,13-0.1,19.49-0.11
		c8.13-0.01,16.25,0,24.99,0c0-2.42,0-4.36,0-6.3c0-25.62,0-51.23,0-76.85c0-1.33-0.04-2.66,0.02-3.99
		c0.28-5.89,3.68-9.67,8.64-9.64c4.98,0.03,8.37,3.77,8.39,9.76c0.07,26.61,0.04,53.23,0.04,79.84
		C198.37,171.35,198.37,173.48,198.37,176.18z"/>
	
		<linearGradient id="SVGID_00000124162954914529957620000016500478552264196267_" gradientUnits="userSpaceOnUse" x1="269.1431" y1="505.8705" x2="448.3265" y2="299.7436">
		<stop  offset="5.327789e-08" style="stop-color:#16B7D7"/>
		<stop  offset="1" style="stop-color:#2E7FC2"/>
	</linearGradient>
	<path style="fill:url(#SVGID_00000124162954914529957620000016500478552264196267_);" d="M247.13,437.34
		c-3.44,0-6.28,0.17-9.09-0.04c-5.25-0.39-8.68-3.88-8.66-8.52c0.01-4.65,3.48-8.27,8.74-8.35c11.99-0.18,23.99-0.18,35.98,0.01
		c5.03,0.08,8.36,3.53,8.57,8.01c0.22,4.62-3.17,8.35-8.35,8.81c-2.95,0.26-5.95,0.05-8.66,0.05c0,12.81-1.42,25.38,0.4,37.46
		c1.86,12.36,14.58,19.89,27.21,18.03c37.57-5.55,71.68-19.81,102.41-42c37.65-27.19,65.12-62.4,82.45-105.46
		c0.31-0.77,0.61-1.54,0.94-2.31c2.38-5.46,6.74-7.68,11.5-5.88c4.59,1.74,6.84,6.87,4.31,12.04
		c-7.58,15.49-14.24,31.64-23.61,46.01C430.56,457.62,373,495.43,299.69,509.25c-28.14,5.31-51.43-13.7-52.18-42.48
		c-0.22-8.31-0.03-16.63-0.06-24.94C247.45,440.54,247.27,439.25,247.13,437.34z"/>
	
		<linearGradient id="SVGID_00000107589836824181059090000011440592164614507935_" gradientUnits="userSpaceOnUse" x1="225.1616" y1="319.531" x2="286.9038" y2="248.5047">
		<stop  offset="5.327789e-08" style="stop-color:#16B7D7"/>
		<stop  offset="1" style="stop-color:#2E7FC2"/>
	</linearGradient>
	<path style="fill:url(#SVGID_00000107589836824181059090000011440592164614507935_);" d="M267.54,292.55c-2.52,0-4.27,0-6.02,0
		c-9.99,0-19.98,0.13-29.97-0.05c-8.1-0.14-11.81-6.1-8.26-13.27c8.09-16.37,16.31-32.68,24.57-48.96
		c2.71-5.35,7.28-7.15,11.83-4.96c4.66,2.24,6,7.21,3.23,12.82c-5.29,10.72-10.69,21.39-16.03,32.09c-0.72,1.44-1.34,2.93-2.4,5.25
		c2.51,0,4.26,0,6.01,0c9.99,0,19.98-0.14,29.97,0.06c8.09,0.17,11.78,6.15,8.24,13.31c-8.09,16.37-16.31,32.67-24.56,48.96
		c-2.74,5.41-7.24,7.18-11.82,4.94c-4.68-2.28-6-7.24-3.24-12.83c5.3-10.72,10.69-21.38,16.03-32.08
		C265.85,296.38,266.48,294.89,267.54,292.55z"/>
	
		<linearGradient id="SVGID_00000008135592312620617460000004328783888368944768_" gradientUnits="userSpaceOnUse" x1="490.5837" y1="319.728" x2="504.2734" y2="303.9797">
		<stop  offset="5.327789e-08" style="stop-color:#16B7D7"/>
		<stop  offset="1" style="stop-color:#2E7FC2"/>
	</linearGradient>
	<path style="fill:url(#SVGID_00000008135592312620617460000004328783888368944768_);" d="M506.28,310.14
		c-0.15,7.48-3.96,12.46-9.46,12.38c-4.69-0.07-8.43-3.95-8.38-8.72c0.08-7.55,4.23-12.91,9.8-12.65
		C502.94,301.37,506.38,305.22,506.28,310.14z"/>
</g>
</svg>
